<svg version="1.1" id="Layer_1" xmlns="http://www.w3.org/2000/svg" xmlns:xlink="http://www.w3.org/1999/xlink" x="0px" y="0px"
	 width="100%" viewBox="0 0 1200 551" enable-background="new 0 0 1200 551" xml:space="preserve">
<path fill="#DA1B22" opacity="1.000000" stroke="none" 
	d="
M757.000000,552.000000 
	C504.666687,552.000000 252.833359,552.000000 1.000023,552.000000 
	C1.000000,369.833374 1.013437,187.666702 0.906299,5.500133 
	C0.904094,1.750982 1.750662,0.906071 5.499945,0.907008 
	C402.499908,1.006187 799.499878,1.006183 1196.499878,0.907047 
	C1200.248535,0.906111 1201.095947,1.750231 1201.093750,5.499906 
	C1200.986450,186.166489 1200.986450,366.833160 1201.093628,547.499756 
	C1201.095947,551.248718 1200.249878,552.096924 1196.500000,552.094055 
	C1050.166748,551.983276 903.833374,552.000000 757.000000,552.000000 
z"/>
<path fill="#FEFDFD" opacity="1.000000" stroke="none" 
	d="
M374.645050,476.589478 
	C387.152191,469.843201 400.194946,465.203247 412.906677,459.822357 
	C455.658661,441.725311 498.482391,423.797821 541.274292,405.795197 
	C542.488098,405.284515 543.653503,404.659088 544.776062,403.362427 
	C422.539673,403.362427 300.303284,403.362427 178.246857,403.362427 
	C177.442780,401.185364 178.805237,400.351196 179.497955,399.352539 
	C187.942795,387.177979 196.344925,374.971191 205.003387,362.949402 
	C206.980148,360.204773 207.097672,358.435883 205.075638,355.625519 
	C195.660934,342.540314 186.517517,329.259888 176.657745,315.163910 
	C179.401474,315.163910 181.290802,315.163910 183.180130,315.163910 
	C330.675751,315.163666 478.171417,315.137329 625.666870,315.276215 
	C630.601624,315.280884 632.022644,314.260712 631.971497,309.086334 
	C631.681641,279.756714 631.785217,250.422607 631.894287,221.090546 
	C631.906738,217.733673 631.104309,215.171066 628.874695,212.555298 
	C585.638428,161.831558 542.496338,111.027504 499.348450,60.228455 
	C496.122650,56.430679 492.627777,52.770821 492.013306,47.447746 
	C491.107544,39.601131 494.947784,32.570576 501.856110,29.517513 
	C509.003387,26.358835 516.579163,28.063972 522.138855,34.517467 
	C534.858582,49.282188 547.419739,64.183357 560.065918,79.011566 
	C613.690613,141.889053 666.811646,205.200775 721.868958,266.842987 
	C724.015198,269.246002 724.947449,271.620239 724.902100,274.840729 
	C724.735474,286.671356 725.010437,298.509735 724.738220,310.336456 
	C724.647217,314.291809 725.773132,315.258606 729.678711,315.252106 
	C802.009705,315.131744 874.340942,315.163940 946.672119,315.163971 
	C972.502502,315.164001 998.332886,315.163971 1024.242920,315.163971 
	C1024.624390,317.396271 1022.893921,318.536346 1021.932007,319.926636 
	C1013.786377,331.700165 1005.647217,343.481079 997.273560,355.092041 
	C995.123108,358.073761 994.897278,360.140808 997.159546,363.273010 
	C1006.407898,376.077301 1015.337585,389.111786 1024.998291,402.939941 
	C937.265869,402.939941 850.342773,402.939941 763.231689,402.939941 
	C763.543823,405.571472 765.219666,406.295166 766.334167,407.367371 
	C786.751343,427.008881 807.203430,446.614044 827.663147,466.211273 
	C831.187500,469.587036 834.258850,473.270721 835.918579,477.935883 
	C841.012024,492.252747 831.963562,506.093964 816.370544,507.846527 
	C815.214722,507.976410 814.041931,507.997925 812.877075,507.998108 
	C771.044983,508.005493 729.212891,508.028595 687.380798,507.987762 
	C676.324219,507.976959 667.399536,501.872864 664.139282,492.348267 
	C659.137512,477.735992 670.150757,462.150146 685.818787,462.038239 
	C707.983643,461.879883 730.150513,461.996368 752.316528,461.995392 
	C753.933228,461.995300 755.549927,461.995361 756.983398,461.995361 
	C757.627258,460.752899 756.804810,460.424561 756.400574,460.033722 
	C739.626587,443.817017 722.807373,427.647034 706.074951,411.387665 
	C704.255859,409.619934 702.427734,408.935547 699.908813,408.952087 
	C684.076660,409.056091 668.243286,409.041931 652.410767,408.965240 
	C649.995300,408.953552 647.866821,409.574066 645.697754,410.493439 
	C563.608398,445.289154 481.499786,480.039337 399.424377,514.867920 
	C390.808044,518.524292 382.407379,519.685974 374.256042,514.053223 
	C361.000610,504.893524 361.090912,486.430603 374.645050,476.589478 
z"/>
<path fill="#FEFDFD" opacity="1.000000" stroke="none" 
	d="
M696.722534,115.550812 
	C709.269897,113.922020 717.478088,120.481247 722.900574,129.908173 
	C734.479187,150.037552 734.377808,170.792969 723.013855,191.100266 
	C716.680725,202.417465 705.718567,207.553192 695.164490,205.005920 
	C687.555603,203.169464 681.958435,198.123474 678.276245,191.806137 
	C666.250488,171.173874 666.184082,150.031158 678.105591,129.324142 
	C682.046143,122.479607 688.009216,117.223610 696.722534,115.550812 
z"/>
<path fill="#DA1E24" opacity="1.000000" stroke="none" 
	d="
M869.272766,384.002502 
	C869.847961,388.091156 868.486145,389.599121 864.666077,389.412628 
	C857.196716,389.048035 849.711182,388.956818 842.231201,388.900238 
	C839.156006,388.876984 837.480713,387.994446 838.020081,384.534637 
	C838.271912,382.919006 838.202332,381.214355 838.021118,379.578583 
	C837.701355,376.692413 838.524475,374.944763 841.757202,375.382019 
	C844.392456,375.738434 845.176086,374.747406 845.123779,372.087280 
	C844.960083,363.768738 845.039917,355.444580 845.094421,347.123047 
	C845.111267,344.550568 845.087708,342.425079 841.405151,343.247070 
	C839.093140,343.763184 838.069336,342.295258 838.150269,340.035645 
	C838.156250,339.869171 838.166016,339.702606 838.164673,339.536133 
	C838.084961,329.665314 838.125854,330.195709 848.182434,329.417450 
	C857.922607,328.663666 865.202148,330.068695 870.990906,339.550720 
	C876.699402,348.901367 878.514465,348.621246 884.496582,339.247833 
	C889.713989,331.072632 896.143005,328.060638 905.335022,329.555603 
	C907.109436,329.844208 908.995667,329.666931 910.805786,329.474213 
	C917.187378,328.794739 917.560852,329.122009 917.209900,335.781067 
	C917.015198,339.473938 917.940247,343.871155 911.800537,343.562744 
	C910.074097,343.475952 909.938354,345.072571 909.944031,346.487885 
	C909.977112,354.813049 909.994385,363.138336 909.998108,371.463562 
	C909.999023,373.520447 910.448669,375.168854 912.997742,375.013916 
	C916.707520,374.788391 917.496277,376.960144 917.271179,380.066620 
	C917.187134,381.226562 917.129517,382.413269 917.274353,383.560699 
	C917.848999,388.113129 916.154236,389.688751 911.404053,389.318481 
	C904.782166,388.802307 898.092590,388.949249 891.439514,389.114349 
	C887.430664,389.213867 885.506775,387.839874 885.889282,383.661896 
	C886.055420,381.847717 885.903748,380.003021 885.872742,378.172577 
	C885.834473,375.912109 886.788574,374.635406 889.177734,375.037048 
	C892.836792,375.652222 893.206177,373.703156 893.080994,370.712555 
	C892.867615,365.613831 893.022156,360.499725 893.022156,354.420624 
	C888.019287,358.626984 884.891541,363.222015 881.509216,367.583252 
	C878.086060,371.997223 877.304138,372.159943 873.614929,367.884949 
	C869.834900,363.504639 866.399536,358.826904 862.127258,353.409424 
	C862.127258,360.611115 862.109253,366.962921 862.143738,373.314484 
	C862.150024,374.473572 862.934692,375.331879 864.045471,375.128815 
	C869.834351,374.070648 869.140320,378.049408 869.150330,381.527924 
	C869.152222,382.193420 869.206726,382.858826 869.272766,384.002502 
z"/>
<path fill="#DB1E25" opacity="1.000000" stroke="none" 
	d="
M565.942871,340.004333 
	C571.198059,346.593445 576.244019,352.892883 581.911926,359.968842 
	C581.911926,354.388275 581.922424,349.886688 581.905701,345.385193 
	C581.900452,343.960663 580.845032,343.798065 579.829285,343.972229 
	C576.056396,344.619202 575.912415,342.479767 576.008667,339.576385 
	C576.334412,329.757996 576.255676,329.712555 585.964172,329.634216 
	C591.455750,329.589874 596.949707,329.793732 602.440613,329.727905 
	C605.161560,329.695282 606.442078,330.649780 606.180969,333.498230 
	C606.014221,335.316650 606.000488,337.167938 606.126892,338.989990 
	C606.317871,341.742920 605.573242,343.572968 602.414001,343.434784 
	C598.938354,343.282806 599.166260,345.377441 599.203857,347.974487 
	C599.381775,360.254333 599.267029,372.538147 599.379700,384.819427 
	C599.409485,388.066345 597.947754,388.904297 594.902344,389.212250 
	C587.723022,389.938171 582.460754,388.235626 578.327271,381.511902 
	C573.498657,373.657532 567.285339,366.654449 560.889526,358.253143 
	C560.889526,364.121918 560.887207,368.818176 560.891418,373.514435 
	C560.892334,374.524109 561.444763,375.114380 562.422852,375.008362 
	C567.066040,374.505310 566.980469,377.557068 566.862854,380.741913 
	C566.807739,382.235779 566.887817,383.742981 567.022461,385.233704 
	C567.268127,387.951385 566.265503,389.150665 563.364746,389.109863 
	C555.705505,389.002136 548.040833,389.022614 540.382812,389.193817 
	C537.006531,389.269318 535.943481,387.763031 536.230835,384.663788 
	C536.414612,382.681763 536.450623,380.684052 536.499817,378.692047 
	C536.557800,376.344727 537.290222,374.725220 540.065430,375.270538 
	C543.526001,375.950531 543.945618,373.934418 543.892944,371.216309 
	C543.738464,363.231354 543.719727,355.243713 543.559387,347.258942 
	C543.515320,345.061523 543.404785,342.687256 540.014343,343.352295 
	C537.569397,343.831909 536.755554,342.412506 536.624023,340.269897 
	C536.583435,339.607147 536.432312,338.951904 536.369019,338.289642 
	C535.561157,329.829041 536.221130,329.103882 544.632935,329.195404 
	C545.299133,329.202667 545.977661,329.320496 546.629333,329.231720 
	C555.592346,328.011139 562.080139,331.272797 565.942871,340.004333 
z"/>
<path fill="#DA1E25" opacity="1.000000" stroke="none" 
	d="
M380.399414,329.479797 
	C385.927887,328.721802 388.158783,332.344299 390.661957,335.730225 
	C395.800140,342.680298 401.035675,349.559143 406.300690,356.413879 
	C407.064484,357.408295 407.693054,358.716644 409.345856,358.980469 
	C409.345856,354.445526 409.354248,349.956512 409.339264,345.467560 
	C409.335968,344.483185 408.749786,343.819946 407.800415,343.982208 
	C402.648315,344.862823 403.639954,341.374756 403.767426,338.444733 
	C403.847046,336.614655 403.954468,334.776093 403.862823,332.950714 
	C403.745422,330.612610 404.806519,329.605957 407.063049,329.627960 
	C415.049072,329.705780 423.035126,329.784637 431.021332,329.834045 
	C432.907593,329.845734 433.761841,330.806885 433.765991,332.598724 
	C433.771393,334.929474 433.714905,337.260315 433.695984,339.591217 
	C433.677307,341.894775 432.856201,343.457947 430.238861,343.383148 
	C427.029388,343.291412 426.746735,344.985199 426.810181,347.827576 
	C427.073853,359.644043 426.843475,371.471619 427.111389,383.287903 
	C427.216949,387.945282 425.295135,389.084747 420.944122,389.305786 
	C414.606567,389.627747 410.138214,388.038330 406.452942,382.319214 
	C401.248016,374.241638 394.953400,366.866150 388.215668,357.993591 
	C388.215668,364.014709 388.219055,368.688995 388.213531,373.363281 
	C388.211945,374.694458 389.076477,374.901001 390.159912,375.072418 
	C391.646393,375.307556 394.047150,374.501526 394.013031,377.031860 
	C393.961884,380.823608 395.321960,384.680359 393.801758,388.389038 
	C393.393799,389.384308 392.028015,389.041290 391.072601,389.048187 
	C383.410004,389.103394 375.745331,389.034943 368.085388,389.198029 
	C364.856659,389.266785 363.485565,388.099121 363.858307,384.819916 
	C364.064331,383.007996 364.041321,381.155518 363.959167,379.328613 
	C363.833374,376.531860 364.527954,374.669647 367.868500,375.302063 
	C370.716461,375.841248 371.274719,374.245270 371.239868,371.860352 
	C371.118225,363.532379 371.047913,355.203461 371.009369,346.874695 
	C370.998779,344.587463 370.632019,342.839294 367.690063,343.331238 
	C364.583130,343.850739 364.164703,341.856476 363.958557,339.432617 
	C363.117279,329.540741 363.595551,328.986115 373.468201,329.220398 
	C375.633362,329.271790 377.797241,329.375519 380.399414,329.479797 
z"/>
<path fill="#DB1E25" opacity="1.000000" stroke="none" 
	d="
M338.813660,345.257812 
	C342.866272,353.132965 345.652222,361.141876 348.988770,368.915253 
	C350.283020,371.930542 351.053467,375.878143 355.999756,375.078613 
	C357.539185,374.829773 358.320862,376.127991 358.533997,377.596924 
	C358.629303,378.253815 358.645294,378.922424 358.691620,379.586121 
	C359.341125,388.891388 359.079102,389.174316 349.994141,389.065887 
	C344.171295,388.996399 338.347687,388.857269 332.525696,388.904449 
	C329.686768,388.927490 328.472076,387.722778 328.929047,384.979675 
	C329.467285,381.748932 327.102783,377.426300 332.425781,375.900757 
	C333.354767,375.634521 333.027954,374.134918 332.619080,373.185638 
	C332.119659,372.026001 331.254059,371.118958 329.953613,371.342896 
	C324.790863,372.231934 319.667572,370.940948 314.517822,371.174866 
	C312.784180,371.253632 311.660461,371.855194 311.167877,373.515808 
	C310.531342,375.661743 312.188812,375.609924 313.503204,376.379028 
	C317.851746,378.923767 315.410889,383.241913 315.539154,386.762329 
	C315.648712,389.769623 312.778625,388.988617 310.949768,389.004639 
	C303.628143,389.068817 296.304047,388.924011 288.983948,389.045380 
	C286.361420,389.088867 285.365479,388.068207 285.439758,385.560852 
	C285.493835,383.735809 285.558075,381.877045 285.285675,380.083740 
	C284.787262,376.802734 285.606140,374.822174 289.345978,375.110291 
	C291.018616,375.239166 292.108582,374.610107 292.848206,372.997833 
	C296.793549,364.397858 300.824738,355.837311 304.827087,347.263489 
	C305.944977,344.868774 306.064026,343.105774 302.562042,343.237976 
	C300.660767,343.309723 300.192444,342.045380 299.969238,340.320587 
	C298.630859,329.977905 300.073547,328.388672 310.535706,329.562592 
	C316.529663,330.235107 322.509155,329.650391 328.493469,329.733887 
	C330.859406,329.766907 332.008911,330.664703 332.908508,332.776276 
	C334.662231,336.892670 336.718445,340.880188 338.813660,345.257812 
z"/>
<path fill="#DB1E25" opacity="1.000000" stroke="none" 
	d="
M267.085876,386.261536 
	C258.755493,389.486633 250.393845,389.127533 242.089249,389.185455 
	C236.263962,389.226074 230.434509,389.015808 224.613419,389.167664 
	C221.510040,389.248627 220.444122,388.006805 220.646500,385.049500 
	C220.781738,383.072998 220.637466,381.070374 220.520264,379.085266 
	C220.360489,376.378723 221.414658,374.740814 224.261322,375.339874 
	C226.458649,375.802368 227.315079,375.438080 227.169327,373.036896 
	C226.644257,364.385742 227.120331,355.739471 227.519379,347.097168 
	C227.644211,344.394104 227.244614,342.479828 223.753738,343.189880 
	C221.694321,343.608734 220.927567,342.501770 220.760925,340.373291 
	C219.989868,330.524384 220.264755,330.368317 229.843750,329.660706 
	C239.010757,328.983551 248.206482,329.054596 257.263214,329.936401 
	C277.119110,331.869568 287.972321,347.206421 282.667389,368.254578 
	C280.514587,376.796265 275.399994,382.618591 267.085876,386.261536 
z"/>
<path fill="#DA1E25" opacity="1.000000" stroke="none" 
	d="
M795.459045,371.397675 
	C792.865540,371.304321 790.701233,371.317749 788.544922,371.193329 
	C786.666138,371.084869 785.805969,372.206116 785.337524,373.720154 
	C784.766968,375.564331 786.194214,375.646301 787.443970,376.274261 
	C792.357117,378.743134 789.538940,383.302155 789.766663,386.882660 
	C789.953918,389.826843 786.911865,388.973145 785.109985,388.994110 
	C777.956787,389.077240 770.797791,388.860992 763.649231,389.057831 
	C760.424500,389.146606 759.570740,387.813080 759.775513,384.930389 
	C759.904480,383.114471 759.864746,381.255951 759.630005,379.451752 
	C759.249512,376.527496 760.157593,374.941833 763.329346,375.110352 
	C764.874146,375.192444 766.192383,374.962585 766.981750,373.228882 
	C770.969727,364.470184 775.042297,355.749847 779.124939,347.034607 
	C780.158691,344.827820 780.491760,343.128235 777.158264,343.275269 
	C774.967651,343.371857 774.214600,342.081543 774.213928,340.151794 
	C774.210205,329.358856 771.853088,328.725891 784.457703,329.571777 
	C790.460083,329.974548 796.428833,329.675476 802.410706,329.730591 
	C804.892517,329.753448 806.132690,330.548340 807.195862,332.944153 
	C812.509888,344.919495 818.734497,356.480804 823.197571,368.850281 
	C824.385864,372.143677 825.595886,376.010712 830.650635,375.132599 
	C831.690430,374.951996 832.396118,375.970337 832.721619,376.974060 
	C832.872192,377.438080 832.850769,377.956970 832.915222,378.449982 
	C834.217773,388.412170 833.466187,389.232788 823.422424,389.054077 
	C817.934204,388.956421 812.443665,388.849030 806.956177,388.915894 
	C803.940552,388.952576 802.562561,387.746307 803.056091,384.736450 
	C803.568054,381.614197 801.496704,377.510895 806.480286,376.019653 
	C807.479553,375.720612 807.192444,374.301056 806.886292,373.327026 
	C806.419617,371.842316 805.338989,371.217255 803.841797,371.323425 
	C801.192810,371.511261 798.551514,372.016632 795.459045,371.397675 
z"/>
<path fill="#DB1E25" opacity="1.000000" stroke="none" 
	d="
M658.791992,332.070068 
	C666.772644,335.059784 666.996399,341.463013 666.752930,348.082825 
	C666.734863,348.574158 666.771545,349.203247 666.497864,349.528687 
	C663.314697,353.314056 659.065308,350.670410 655.340698,351.257599 
	C653.147400,351.603424 651.378052,350.726837 651.613342,347.972321 
	C651.870361,344.964478 650.034241,343.862366 647.487671,343.405792 
	C640.744385,342.196930 634.372986,342.607788 629.906128,348.646698 
	C625.675171,354.366547 625.514648,360.815704 628.206360,367.118713 
	C631.369080,374.524719 644.513428,377.805573 651.335754,373.319122 
	C652.642944,372.459534 653.176514,371.492828 653.024536,370.047913 
	C652.830261,368.200806 651.397278,368.170868 650.057678,368.176392 
	C648.896667,368.181183 647.736145,368.359741 646.575623,368.463257 
	C638.283325,369.202911 636.262329,366.788696 637.989380,358.533752 
	C638.451904,356.323364 639.785400,355.995331 641.575867,355.997223 
	C649.233643,356.005310 656.891541,356.039978 664.549133,356.008881 
	C667.065735,355.998657 668.115173,357.087982 668.065918,359.637238 
	C667.956543,365.296051 668.392700,370.992035 667.892334,376.609192 
	C667.387207,382.279388 662.737305,384.937531 658.133240,386.909576 
	C648.963013,390.837494 639.327759,391.216034 629.761841,388.830109 
	C619.407837,386.247650 609.790161,377.157867 609.198608,360.400391 
	C608.383545,337.309906 626.557800,328.043396 644.020325,328.549774 
	C648.975342,328.693451 654.008362,329.228363 658.791992,332.070068 
z"/>
<path fill="#DB1F26" opacity="1.000000" stroke="none" 
	d="
M703.325195,336.080261 
	C702.520447,330.818665 704.485229,328.952606 709.368408,329.532684 
	C715.673828,330.281708 722.011353,329.959259 728.290955,329.089630 
	C732.233398,328.543671 734.260254,330.362640 733.689697,333.985870 
	C733.187195,337.176605 736.067444,340.768005 731.700012,343.855865 
	C729.950500,345.092773 733.201416,348.889435 735.074707,350.648468 
	C736.752014,352.223480 737.373962,349.575867 738.020569,348.515442 
	C739.161743,346.643890 740.703735,345.366852 738.457458,342.320374 
	C736.454468,339.603821 737.633484,334.899658 738.370544,331.141296 
	C738.723877,329.339386 740.729370,329.343292 742.123352,329.341370 
	C749.608337,329.331085 757.093384,329.508667 764.578796,329.574432 
	C767.147278,329.597015 768.129578,330.820923 767.925720,333.329071 
	C767.778076,335.145935 767.760681,336.987488 767.866272,338.807556 
	C768.038574,341.775940 767.193909,343.727173 763.774658,343.498047 
	C762.202148,343.392700 760.909241,343.679443 759.934998,345.179871 
	C755.414062,352.142426 750.768311,359.024109 746.263123,365.996613 
	C745.286743,367.507721 744.528931,369.172943 744.404175,371.094330 
	C744.241638,373.598755 744.507568,375.475067 747.753174,375.021637 
	C750.680176,374.612701 751.573059,376.312103 751.546326,378.868530 
	C751.542847,379.200806 751.540222,379.533081 751.534973,379.865326 
	C751.382263,389.454865 751.385437,389.356232 741.646729,389.034760 
	C735.832947,388.842926 730.002258,388.881317 724.188477,389.082916 
	C720.930481,389.195862 719.597168,388.073853 719.957336,384.779602 
	C720.154968,382.971527 720.053711,381.117249 719.944946,379.292297 
	C719.764404,376.261688 720.597595,374.402374 724.142212,375.008087 
	C727.286438,375.545349 727.898987,373.639618 727.530273,371.122772 
	C727.136963,368.438416 725.870300,366.132965 724.285095,363.929565 
	C720.401978,358.532288 716.634583,353.051697 712.824951,347.601654 
	C711.100586,345.134766 709.453186,343.090088 705.826965,342.863068 
	C701.717712,342.605865 703.616333,338.894348 703.325195,336.080261 
z"/>
<path fill="#DA1E25" opacity="1.000000" stroke="none" 
	d="
M436.962891,356.273041 
	C439.430298,328.245880 471.709320,322.467529 487.535065,333.348145 
	C490.237732,335.206299 491.824219,337.347565 491.225922,340.782410 
	C490.999878,342.080048 491.199127,343.445923 491.067993,344.767151 
	C490.770508,347.764587 493.398712,351.964630 490.142548,353.504181 
	C486.543579,355.205811 481.955505,354.263428 477.848541,353.706268 
	C475.270111,353.356567 475.713348,350.892426 476.030121,349.247986 
	C476.998444,344.220673 474.408813,343.301300 470.184540,343.333527 
	C463.537903,343.384216 458.680542,346.081238 455.698425,352.054962 
	C452.621460,358.218872 453.702911,364.149628 457.362305,369.516235 
	C461.470978,375.541656 472.484528,377.168365 479.611176,372.289520 
	C483.775696,369.438538 485.839935,370.614777 488.623291,373.704803 
	C495.197205,381.003052 495.420563,381.631470 486.427277,386.132965 
	C466.217834,396.248535 435.609711,388.248505 436.962891,356.273041 
z"/>
<path fill="#DB1F26" opacity="1.000000" stroke="none" 
	d="
M924.101196,377.517212 
	C924.397217,376.020386 924.981079,374.990143 926.083984,375.150452 
	C930.628052,375.810883 931.035095,372.899689 930.747498,369.705078 
	C930.073608,362.219086 929.898682,354.750153 930.810120,347.278229 
	C931.131714,344.642517 930.357544,343.104034 927.356567,343.330841 
	C924.639343,343.536194 923.387756,342.250702 923.688538,339.453949 
	C923.812073,338.305237 923.677917,337.125824 923.626892,335.961884 
	C923.335571,329.311493 923.412170,329.442383 930.092957,329.642639 
	C936.398438,329.831665 942.711853,330.100281 949.037537,329.276764 
	C954.382080,328.580963 955.166870,329.582611 954.890198,334.886780 
	C954.821045,336.211365 954.693481,337.556061 954.839233,338.864075 
	C955.185486,341.971069 954.068481,343.702820 950.771729,343.506287 
	C948.334290,343.360962 947.688599,344.501495 947.728821,346.810791 
	C947.867737,354.792969 947.943115,362.780701 947.784241,370.761200 
	C947.727173,373.622101 948.813721,374.733582 951.478210,374.627014 
	C953.473938,374.547180 955.468689,374.267456 957.460205,374.300293 
	C960.827148,374.355804 962.413757,372.892365 961.908752,369.491821 
	C961.274109,365.218994 963.672852,364.550964 967.205505,364.578857 
	C977.215942,364.657928 977.212280,364.577972 977.071289,374.583038 
	C977.043152,376.580841 976.937805,378.588104 977.079590,380.575958 
	C977.794739,390.601593 977.294495,388.945557 969.239502,388.975800 
	C956.255249,389.024567 943.270569,389.005524 930.286682,389.098328 
	C923.923279,389.143829 923.922180,389.228485 923.979858,382.954254 
	C923.995178,381.289734 924.024292,379.625366 924.101196,377.517212 
z"/>
<path fill="#DB1F26" opacity="1.000000" stroke="none" 
	d="
M529.755066,381.959045 
	C529.411926,389.022430 529.412781,388.917908 522.931396,388.865845 
	C516.283875,388.812408 509.623047,388.782623 502.990173,389.146240 
	C498.891602,389.370941 497.568604,387.764313 497.997803,383.946228 
	C498.163544,382.471924 498.091736,380.952148 497.963013,379.467438 
	C497.707123,376.515869 498.327728,374.456543 501.943298,375.029724 
	C504.450500,375.427216 505.003815,374.158630 504.995514,371.896515 
	C504.963898,363.257538 504.984039,354.615509 505.201019,345.980072 
	C505.271088,343.191345 503.880890,343.034668 501.825134,343.247162 
	C498.753937,343.564575 497.913300,342.116119 497.930695,339.129669 
	C497.992279,328.568542 497.978699,328.620483 508.713898,329.347595 
	C513.670715,329.683289 518.676025,329.391113 523.656311,329.264648 
	C527.601257,329.164490 530.090454,330.256866 529.311646,334.903809 
	C529.068115,336.356934 529.249695,337.889832 529.309509,339.383331 
	C529.411499,341.927734 528.623840,343.602325 525.684326,343.245483 
	C522.932678,342.911438 522.301147,344.367828 522.346375,346.793396 
	C522.501099,355.099304 522.538818,363.407410 522.621704,371.714661 
	C522.637939,373.344360 522.252075,375.406342 524.874329,375.127991 
	C530.147461,374.568207 529.935547,378.019653 529.755066,381.959045 
z"/>
<path fill="#DB2229" opacity="1.000000" stroke="none" 
	d="
M709.731567,365.458435 
	C706.859802,367.893341 703.792664,366.776917 700.886414,366.830841 
	C694.754822,366.944672 688.610046,366.688873 682.490417,366.988556 
	C678.502563,367.183807 676.999023,365.621307 677.329773,361.831299 
	C677.416138,360.842072 677.508667,359.834442 677.417358,358.852081 
	C677.070923,355.124420 678.350891,353.618530 682.431030,353.799408 
	C689.711365,354.122192 697.027405,353.981354 704.314270,353.685425 
	C708.397888,353.519562 710.750305,354.343689 710.009705,359.076721 
	C709.705627,361.020508 709.921936,363.045715 709.731567,365.458435 
z"/>
<path fill="#FCF3F3" opacity="1.000000" stroke="none" 
	d="
M320.204834,358.010559 
	C315.815063,356.997955 318.210388,354.701294 318.956482,353.069885 
	C319.803497,351.217834 319.497772,347.875366 321.852142,347.861938 
	C324.199249,347.848541 324.026611,351.174011 324.827423,353.031128 
	C326.942810,357.936768 326.736816,358.085571 320.204834,358.010559 
z"/>
<path fill="#FDFAFA" opacity="1.000000" stroke="none" 
	d="
M265.098267,366.823303 
	C260.962952,373.426392 252.486389,376.458282 245.912125,374.181000 
	C244.115005,373.558502 244.340759,372.305176 244.282898,371.024261 
	C243.914932,362.879639 244.158966,354.748474 244.709595,346.616516 
	C244.839005,344.705200 245.599548,344.173157 247.426346,343.953979 
	C262.062622,342.197784 269.546997,350.751129 265.796631,365.078918 
	C265.671722,365.556213 265.420227,366.000366 265.098267,366.823303 
z"/>
<path fill="#FCF1F2" opacity="1.000000" stroke="none" 
	d="
M800.034424,357.111938 
	C799.430054,357.697876 798.938416,358.087891 798.525208,358.017487 
	C796.365234,357.649384 792.952209,359.336029 792.294189,356.785645 
	C791.538513,353.856873 793.754578,350.798004 795.294189,348.143768 
	C796.184814,346.608307 797.327148,348.146423 797.716858,349.191986 
	C798.636780,351.659454 799.372986,354.195374 800.034424,357.111938 
z"/>
</svg>